<svg width="121" height="101" viewBox="0 0 121 101" fill="none" xmlns="http://www.w3.org/2000/svg">
<g id="Layer_1" clip-path="url(#clip0_42_821)">
<path id="Vector" d="M14.886 91.259L36.4878 71.5488L36.7471 80.9462L15.1453 100.656L14.886 91.259Z" fill="#EB2027" stroke="#B41F24" stroke-width="0.2" stroke-linejoin="round"/>
<path id="Vector_2" d="M25.0309 78.6271L46.6327 58.917L46.77 63.6767L25.1682 83.3869L25.0309 78.6271Z" fill="#ADADAD"/>
<path id="Vector_3" d="M0.652557 61.3576L22.2544 41.6475H35.664L14.0622 61.3576H0.652557Z" fill="#EB2027" stroke="#B41F24" stroke-width="0.2" stroke-linejoin="round"/>
<path id="Vector_4" d="M14.0622 61.3576L35.664 41.6475L35.9386 51.4415L14.3368 71.1517L14.0622 61.3576Z" fill="#EB2027" stroke="#B41F24" stroke-width="0.2" stroke-linejoin="round"/>
<path id="Vector_5" d="M14.3368 71.1515L35.9386 51.4414H46.4344L24.8326 71.1515H14.3368Z" fill="#EB2027" stroke="#B41F24" stroke-width="0.2" stroke-linejoin="round"/>
<path id="Vector_6" d="M25.1682 83.3869L46.77 63.6768H61.4306L39.8135 83.3869H25.1682Z" fill="#EB2027" stroke="#B41F24" stroke-width="0.2" stroke-linejoin="round"/>
<path id="Vector_7" d="M61.6899 73.4861L61.4306 63.6768L39.8135 83.3869L40.0881 93.1962L40.3017 100.656L61.9035 80.946L61.6899 73.4861Z" fill="#EB2027" stroke="#B41F24" stroke-width="0.2" stroke-linejoin="round"/>
<path id="Vector_8" d="M61.0949 51.4415L60.8203 41.6475L39.2185 61.3576L39.4778 71.1517L39.6914 78.6269L61.2933 58.9167L61.0949 51.4415Z" fill="#EB2027" stroke="#B41F24" stroke-width="0.2" stroke-linejoin="round"/>
<path id="Vector_9" d="M39.2185 61.3574L39.4779 71.1515L39.6915 78.6267H25.0309L25.1682 83.3864H39.8135L40.0881 93.1957L40.3017 100.656H25.6411L25.4428 93.1957L25.3818 91.2583H14.886L15.1453 100.656H1.7357L0.652557 61.3574H14.0622L14.3368 71.1515H24.8326L24.558 61.3574H39.2185Z" fill="white" stroke="#B41F24" stroke-width="0.2" stroke-linejoin="round"/>
<path id="Vector_10" d="M24.558 61.3576L46.1598 41.6475H60.8204L39.2185 61.3576H24.558Z" fill="#EB2027" stroke="#B41F24" stroke-width="0.2" stroke-linejoin="round"/>
<g id="Group">
<path id="Vector_11" d="M73.7113 91.1209L95.2521 69.2598L95.542 78.8555L74.0012 100.732L73.7113 91.1209Z" fill="#F2EA27" stroke="#FEE000" stroke-width="0.2" stroke-linejoin="round"/>
<path id="Vector_12" d="M72.8112 61.9373L94.352 40.0762L94.6419 49.5956L73.1011 71.472L72.8112 61.9373Z" fill="#F2EA27" stroke="#FEE000" stroke-width="0.2" stroke-linejoin="round"/>
<path id="Vector_13" d="M59.0812 61.9373L80.622 40.0762H94.352L72.8112 61.9373H59.0812Z" fill="#F2EA27" stroke="#FEE000" stroke-width="0.2" stroke-linejoin="round"/>
<path id="Vector_14" d="M73.1011 71.4721L94.6419 49.5957H105.717L84.1766 71.4721H73.1011Z" fill="#F2EA27" stroke="#FEE000" stroke-width="0.2" stroke-linejoin="round"/>
<path id="Vector_15" d="M97.6167 61.9373L119.158 40.0762L120.347 78.8557L98.8066 100.732L97.6167 61.9373Z" fill="#F2EA27" stroke="#FEE000" stroke-width="0.2" stroke-linejoin="round"/>
<path id="Vector_16" d="M83.8867 61.9373L105.428 40.0762H119.158L97.6167 61.9373H83.8867Z" fill="#F2EA27" stroke="#FEE000" stroke-width="0.2" stroke-linejoin="round"/>
</g>
<path id="Vector_17" d="M97.6167 61.9375L98.8066 100.732H85.0614L84.7715 91.1213H73.7113L74.0011 100.732H60.2712L59.0812 61.9375H72.8112L73.1011 71.4722H84.1766L83.8867 61.9375H97.6167Z" fill="white" stroke="#FDEB01" stroke-width="0.2" stroke-linejoin="round"/>
<path id="Vector_18" d="M38.5168 52.7993L60.0576 30.9229H80.0576L58.5168 52.7993H38.5168Z" fill="white" stroke="#49ADE2" stroke-width="0.2" stroke-linejoin="round"/>
<path id="Vector_19" d="M37.876 31.8227L59.4168 9.94629L60.0576 30.9226L38.5168 52.7991L37.876 31.8227Z" fill="white" stroke="#49ADE2" stroke-width="0.2" stroke-linejoin="round"/>
<path id="Vector_20" d="M68.3718 52.2807L89.9126 30.4043V30.5416L68.3718 52.418V52.2807Z" fill="#ADADAD"/>
<path id="Vector_21" d="M85.5038 20.2285H79.4779L79.4474 20.259H75.786L54.2452 42.1355H57.8913L57.3574 42.6847H63.3833H67.4718L89.5923 20.2285H85.5038Z" fill="white" stroke="#49ADE2" stroke-width="0.2" stroke-linejoin="round"/>
<path id="Vector_22" d="M90.0652 39.542L89.9127 30.5413V30.5565L89.5923 20.2285L67.4718 42.6847L67.7922 53.1042L68.3871 52.5092L68.6465 61.2964L90.0652 39.542Z" fill="white" stroke="#49ADE2" stroke-width="0.2" stroke-linejoin="round"/>
<path id="Vector_23" d="M89.3787 9.42771L89.0888 0.152344L67.548 22.0288L67.8226 31.3041L67.9904 36.3995L89.5313 14.5231L89.3787 9.42771Z" fill="white" stroke="#49ADE2" stroke-width="0.2" stroke-linejoin="round"/>
<path id="Vector_24" d="M67.5481 22.0293L67.8227 31.3047L67.9905 36.4H58.4863L58.3185 31.3047H37.8761L38.5168 52.281H58.5168L58.3642 46.9873H54.3978L54.2452 42.1361H58.2117H64.0851H68.0667L68.3719 52.281V52.4183L68.6465 61.297H38.7914H32.857H29.2872L28.3719 31.3047L28.204 25.5076L28.0973 22.0293H67.5481Z" fill="#37C5EF" stroke="#49ACE1" stroke-width="0.2" stroke-linejoin="round"/>
<path id="Vector_25" d="M28.0973 22.0288L49.6381 0.152344H89.0889L67.5481 22.0288H28.0973Z" fill="white" stroke="#49ADE2" stroke-width="0.2" stroke-linejoin="round"/>
</g>
<defs>
<clipPath id="clip0_42_821">
<rect width="120" height="100.885" fill="white" transform="translate(0.5)"/>
</clipPath>
</defs>
</svg>
