<svg width="98" height="10" viewBox="0 0 98 10" fill="none" xmlns="http://www.w3.org/2000/svg">
<g id="Group">
<path id="Vector" d="M0.72331 7.71968L3.25467 3.46654V1.44829H0.905755V0.764145H6.39036V1.44829H4.04145V3.46654L6.5728 7.71968L5.92286 8.13017L3.64236 4.27612L1.36186 8.13017L0.711914 7.71968H0.72331ZM7.74726 0.182617H8.53403V9.98878H7.74726V0.182617Z" fill="#231F20"/>
<path id="Vector_2" d="M13.9959 4.50417V7.99334H13.2319V4.56118H10.4155V3.87703H13.2319V1.49391H10.2559V0.809754H13.9959V3.82002H15.3756V0.182617H16.1396V9.98878H15.3756V4.50417H13.9959ZM17.3596 0.182617H18.1236V9.98878H17.3596V0.182617Z" fill="#231F20"/>
<path id="Vector_3" d="M20.5521 7.1831C20.1074 6.53316 19.8794 5.59815 19.8794 4.37808C19.8794 3.15801 20.1074 2.23441 20.5521 1.57306C20.9968 0.911717 21.6468 0.592445 22.4792 0.592445C23.3115 0.592445 23.9501 0.923119 24.4062 1.57306C24.8509 2.22301 25.0789 3.15801 25.0789 4.37808C25.0789 5.59815 24.8509 6.52175 24.4062 7.1831C23.9615 7.83304 23.3115 8.16371 22.4792 8.16371C21.6468 8.16371 21.0082 7.83304 20.5521 7.1831ZM23.8133 6.68139C24.1325 6.14547 24.2808 5.3815 24.2808 4.38948C24.2808 3.39747 24.1211 2.6335 23.8133 2.09758C23.494 1.56166 23.0493 1.288 22.4792 1.288C21.909 1.288 21.4529 1.56166 21.1451 2.09758C20.8258 2.6335 20.6776 3.39747 20.6776 4.38948C20.6776 5.3815 20.8372 6.14547 21.1451 6.68139C21.4643 7.2173 21.909 7.49096 22.4792 7.49096C23.0493 7.49096 23.5054 7.2173 23.8133 6.68139ZM27.4963 0.193359V9.99952H26.7095V0.193359H27.4963Z" fill="#231F20"/>
<path id="Vector_4" d="M33.3004 4.50417C33.289 5.67863 33.1066 6.56802 32.7759 7.17236C32.4453 7.77669 31.955 8.07315 31.305 8.07315C30.6551 8.07315 30.1534 7.76529 29.8113 7.13815C29.4692 6.51101 29.3096 5.5874 29.3096 4.35593C29.3096 3.12446 29.4806 2.20086 29.8113 1.57372C30.142 0.946585 30.6437 0.638717 31.305 0.638717C31.9093 0.638717 32.3769 0.912376 32.7189 1.44829C33.0496 1.98421 33.2434 2.78239 33.2891 3.83142H34.4065V0.19402H35.1705V10.0002H34.4065V4.51557H33.3004V4.50417ZM32.2286 6.62504C32.4339 6.12332 32.5365 5.35935 32.5365 4.35593C32.5365 3.35251 32.4339 2.58855 32.2286 2.08684C32.0234 1.57372 31.7155 1.32287 31.305 1.32287C30.8945 1.32287 30.5981 1.57372 30.3928 2.08684C30.1762 2.61135 30.0735 3.37532 30.0735 4.35593C30.0735 5.33655 30.1762 6.10052 30.3928 6.62504C30.5981 7.13815 30.9059 7.389 31.305 7.389C31.7041 7.389 32.0234 7.13815 32.2286 6.62504ZM37.0747 0.182617V9.98878H36.3107V0.182617H37.0747Z" fill="#231F20"/>
<path id="Vector_5" d="M39.4916 7.1831C39.0469 6.53316 38.8188 5.59815 38.8188 4.37808C38.8188 3.15801 39.0469 2.23441 39.4916 1.57306C39.9363 0.911717 40.5862 0.592445 41.4186 0.592445C42.251 0.592445 42.8895 0.923119 43.3456 1.57306C43.7903 2.22301 44.0184 3.15801 44.0184 4.37808C44.0184 5.59815 43.7903 6.52175 43.3456 7.1831C42.9009 7.83304 42.251 8.16371 41.4186 8.16371C40.5862 8.16371 39.9477 7.83304 39.4916 7.1831ZM42.7527 6.68139C43.072 6.14547 43.2202 5.3815 43.2202 4.38948C43.2202 3.39747 43.0606 2.6335 42.7527 2.09758C42.4334 1.56166 41.9887 1.288 41.4186 1.288C40.8485 1.288 40.3924 1.56166 40.0845 2.09758C39.7653 2.6335 39.617 3.39747 39.617 4.38948C39.617 5.3815 39.7767 6.14547 40.0845 6.68139C40.4038 7.2173 40.8485 7.49096 41.4186 7.49096C41.9887 7.49096 42.4448 7.2173 42.7527 6.68139ZM46.4357 0.193359V9.99952H45.6489V0.193359H46.4357Z" fill="#231F20"/>
<path id="Vector_6" d="M48.112 7.73119L50.6319 3.85434V2.10975H48.283V1.4256H50.6319V0.0458984H51.4187V1.4256H53.7676V2.10975H51.4187V3.85434L53.9387 7.73119L53.3229 8.15308L51.0196 4.61831L48.7163 8.15308L48.1006 7.73119H48.112ZM55.1245 0.18273H55.9113V9.98889H55.1245V0.18273Z" fill="#231F20"/>
<path id="Vector_7" d="M59.9023 6.73893V6.05478H68.4542V6.73893H64.5888V10H63.802V6.73893H59.9137H59.9023ZM63.7678 2.40598V1.42536H60.6093V0.741211H67.7359V1.42536H64.5546V2.40598L67.9867 4.52684L67.5876 5.10837L64.1555 3.01031L60.7233 5.10837L60.3242 4.52684L63.7564 2.40598H63.7678Z" fill="#231F20"/>
<path id="Vector_8" d="M69.4004 4.76576L71.966 2.12038V0.524031H72.7527V2.12038L75.3183 4.76576L74.7938 5.25607L72.3651 2.79313L69.9363 5.25607L69.4118 4.76576H69.4004ZM70.7117 6.43053H77.2225V9.98812H76.4357V7.09188H70.7117V6.41913V6.43053ZM76.4357 0.193359H77.2225V5.62095H76.4357V0.193359Z" fill="#231F20"/>
<path id="Vector_9" d="M81.476 7.91334V6.27138C80.8603 6.20296 80.37 6.00912 80.0165 5.67845C79.6516 5.34777 79.4692 4.92588 79.4692 4.42417C79.4692 4.04789 79.5718 3.72862 79.7657 3.44356C79.9709 3.15849 80.256 2.94185 80.6208 2.78221C80.9857 2.62258 81.419 2.54276 81.8979 2.54276C82.3768 2.54276 82.8101 2.62258 83.175 2.78221C83.5399 2.94185 83.825 3.15849 84.0302 3.44356C84.2355 3.72862 84.3267 4.04789 84.3267 4.42417C84.3267 4.93729 84.1442 5.35918 83.768 5.70125C83.3917 6.04333 82.89 6.23717 82.2514 6.29418V7.92474H85.4213V8.6089H78.728V7.92474H81.4532L81.476 7.91334ZM81.5102 1.14025V0H82.297V1.14025H84.7486V1.8244H79.0473V1.14025H81.4988H81.5102ZM83.1066 5.29077C83.4145 5.07412 83.5627 4.77765 83.5627 4.41277C83.5627 4.04789 83.4145 3.75143 83.1066 3.53478C82.7987 3.31813 82.3996 3.2041 81.9093 3.2041C81.419 3.2041 81.0085 3.31813 80.7121 3.53478C80.4042 3.75143 80.256 4.04789 80.256 4.41277C80.256 4.77765 80.4042 5.07412 80.7121 5.29077C81.0199 5.50741 81.419 5.62144 81.9093 5.62144C82.3996 5.62144 82.8101 5.50741 83.1066 5.29077ZM86.7668 0.18244V9.9886H85.98V0.18244H86.7668Z" fill="#231F20"/>
<path id="Vector_10" d="M88.2375 7.68547L90.7232 3.18148V0.627314H91.51V3.18148L93.9957 7.68547L93.3344 8.09596L91.1109 4.09368L88.8874 8.09596L88.2261 7.68547H88.2375ZM95.1702 0.182617H95.957V3.93404H97.1884V4.6182H95.957V9.98878H95.1702V0.182617Z" fill="#231F20"/>
</g>
</svg>
