<svg width="13" height="12" viewBox="0 0 13 12" fill="none" xmlns="http://www.w3.org/2000/svg">
<path d="M2.22658 10.0581L4.37431 8.0984L4.4001 9.03273L2.25236 10.9924L2.22658 10.0581Z" fill="#EB2027" stroke="#B41F24" stroke-width="0.2" stroke-linejoin="round"/>
<path d="M3.23521 8.80214L5.38295 6.84248L5.3966 7.31571L3.24887 9.27537L3.23521 8.80214Z" fill="#ADADAD"/>
<path d="M0.811432 7.08526L2.95916 5.12561H4.2924L2.14466 7.08526H0.811432Z" fill="#EB2027" stroke="#B41F24" stroke-width="0.2" stroke-linejoin="round"/>
<path d="M2.14467 7.08526L4.2924 5.12561L4.3197 6.09937L2.17197 8.05902L2.14467 7.08526Z" fill="#EB2027" stroke="#B41F24" stroke-width="0.2" stroke-linejoin="round"/>
<path d="M2.17197 8.05902L4.3197 6.09937H5.36323L3.2155 8.05902H2.17197Z" fill="#EB2027" stroke="#B41F24" stroke-width="0.2" stroke-linejoin="round"/>
<path d="M3.24887 9.27539L5.3966 7.31573H6.85421L4.70496 9.27539H3.24887Z" fill="#EB2027" stroke="#B41F24" stroke-width="0.2" stroke-linejoin="round"/>
<path d="M6.87998 8.29101L6.85419 7.31573L4.70494 9.27539L4.73224 10.2507L4.75348 10.9924L6.90121 9.03271L6.87998 8.29101Z" fill="#EB2027" stroke="#B41F24" stroke-width="0.2" stroke-linejoin="round"/>
<path d="M6.82085 6.09937L6.79355 5.12561L4.64581 7.08526L4.6716 8.05902L4.69283 8.80224L6.84057 6.84258L6.82085 6.09937Z" fill="#EB2027" stroke="#B41F24" stroke-width="0.2" stroke-linejoin="round"/>
<path d="M4.6458 7.08527L4.67159 8.05903L4.69282 8.80224H3.23521L3.24887 9.27547H4.70496L4.73226 10.2507L4.75349 10.9924H3.29588L3.27617 10.2507L3.2701 10.0581H2.22657L2.25235 10.9924H0.919122L0.811432 7.08527H2.14466L2.17197 8.05903H3.2155L3.1882 7.08527H4.6458Z" fill="white" stroke="#B41F24" stroke-width="0.2" stroke-linejoin="round"/>
<path d="M3.18819 7.08526L5.33592 5.12561H6.79353L4.64579 7.08526H3.18819Z" fill="#EB2027" stroke="#B41F24" stroke-width="0.2" stroke-linejoin="round"/>
<path d="M8.07533 10.044L10.217 7.87053L10.2458 8.82457L8.10415 10.9996L8.07533 10.044Z" fill="#F2EA27" stroke="#FEE000" stroke-width="0.2" stroke-linejoin="round"/>
<path d="M7.98582 7.1425L10.1275 4.96898L10.1563 5.91544L8.01464 8.09047L7.98582 7.1425Z" fill="#F2EA27" stroke="#FEE000" stroke-width="0.2" stroke-linejoin="round"/>
<path d="M6.62074 7.1425L8.76241 4.96898H10.1275L7.98583 7.1425H6.62074Z" fill="#F2EA27" stroke="#FEE000" stroke-width="0.2" stroke-linejoin="round"/>
<path d="M8.01463 8.0905L10.1563 5.91547H11.2575L9.1158 8.0905H8.01463Z" fill="#F2EA27" stroke="#FEE000" stroke-width="0.2" stroke-linejoin="round"/>
<path d="M10.4521 7.1425L12.5938 4.96898L12.7121 8.82458L10.5704 10.9996L10.4521 7.1425Z" fill="#F2EA27" stroke="#FEE000" stroke-width="0.2" stroke-linejoin="round"/>
<path d="M9.08699 7.1425L11.2287 4.96898H12.5937L10.4521 7.1425H9.08699Z" fill="#F2EA27" stroke="#FEE000" stroke-width="0.2" stroke-linejoin="round"/>
<path d="M10.452 7.14288L10.5703 11H9.20368L9.17486 10.0444H8.07521L8.10403 11H6.73894L6.62064 7.14288H7.98572L8.01454 8.09086H9.11571L9.08689 7.14288H10.452Z" fill="white" stroke="#FDEB01" stroke-width="0.2" stroke-linejoin="round"/>
<path d="M4.57603 6.23433L6.7177 4.0593H8.70617L6.56451 6.23433H4.57603Z" fill="white" stroke="#49ADE2" stroke-width="0.2" stroke-linejoin="round"/>
<path d="M4.51231 4.14879L6.65398 1.97375L6.71768 4.0593L4.57602 6.23433L4.51231 4.14879Z" fill="white" stroke="#49ADE2" stroke-width="0.2" stroke-linejoin="round"/>
<path d="M7.54431 6.18279L9.68598 4.00775V4.0214L7.54431 6.19644V6.18279Z" fill="#ADADAD"/>
<path d="M9.24763 2.99608H8.64851L8.64547 2.99911H8.28145L6.13979 5.17415H6.50229L6.44921 5.22875H7.04833H7.45482L9.65412 2.99608H9.24763Z" fill="white" stroke="#49ADE2" stroke-width="0.2" stroke-linejoin="round"/>
<path d="M9.70117 4.9163L9.686 4.02141V4.02293L9.65415 2.99608L7.45485 5.22875L7.4867 6.2647L7.54585 6.20554L7.57164 7.0792L9.70117 4.9163Z" fill="white" stroke="#49ADE2" stroke-width="0.2" stroke-linejoin="round"/>
<path d="M9.63292 1.92219L9.6041 1L7.46243 3.17503L7.48973 4.09722L7.50642 4.60382L9.64808 2.42879L9.63292 1.92219Z" fill="white" stroke="#49ADE2" stroke-width="0.2" stroke-linejoin="round"/>
<path d="M7.46243 3.175L7.48973 4.09719L7.50641 4.60379H6.56147L6.54479 4.09719H4.51233L4.57603 6.18274H6.5645L6.54934 5.65642H6.15498L6.13981 5.17409H6.53417H7.11812H7.514L7.54433 6.18274V6.19639L7.57163 7.07914H4.60333H4.01331H3.65839L3.56739 4.09719L3.5507 3.52082L3.54008 3.175H7.46243Z" fill="#37C5EF" stroke="#49ACE1" stroke-width="0.2" stroke-linejoin="round"/>
<path d="M3.54008 3.17503L5.68175 1H9.60409L7.46243 3.17503H3.54008Z" fill="white" stroke="#49ADE2" stroke-width="0.2" stroke-linejoin="round"/>
</svg>
