<svg width="321" height="480" viewBox="0 0 321 480" fill="none" xmlns="http://www.w3.org/2000/svg">
<path d="M0.5 472.297L23.0154 449.865L45.9696 472.297M90.9667 472.297L68.0124 449.865L45.497 472.297M135.964 472.297L113.009 449.865L90.4941 472.297M181.028 472.297L158.074 449.865L135.559 472.297M226.093 472.297L203.139 449.865L180.623 472.297M271.157 472.297L248.203 449.865L225.688 472.297M316.222 472.297L293.268 449.865L270.752 472.297M361.286 472.297L338.332 449.865L315.817 472.297M406.351 472.297L383.397 449.865L360.881 472.297M451.416 472.297L428.461 449.865L405.946 472.297M496.48 472.297L473.526 449.865L451.011 472.297M541.545 472.297L518.59 449.865L496.075 472.297M586.609 472.297L563.655 449.865L541.14 472.297M631.674 472.297L608.72 449.865L586.204 472.297M676.738 472.297L653.784 449.865L631.269 472.297M721.803 472.297L698.849 449.865L676.333 472.297M766.868 472.297L743.913 449.865L721.398 472.297M811.932 472.297L788.978 449.865L766.462 472.297M856.997 472.297L834.042 449.865L811.527 472.297M902.061 472.297L881.537 452.263L879.107 449.899L856.592 472.331M46.1384 479.29L23.1842 456.858L0.5 479.29M90.9667 479.29L68.0124 456.858L45.497 479.29M135.964 479.29L113.009 456.858L90.4941 479.29M181.028 479.29L158.074 456.858L135.559 479.29M226.093 479.29L203.139 456.858L180.623 479.29M271.157 479.29L248.203 456.858L225.688 479.29M316.222 479.29L293.268 456.858L270.752 479.29M361.286 479.29L338.332 456.858L315.817 479.29M406.351 479.29L383.397 456.858L360.881 479.29M451.416 479.29L428.461 456.858L405.946 479.29M496.48 479.29L473.526 456.858L451.011 479.29M541.545 479.29L518.59 456.858L496.075 479.29M586.609 479.29L563.655 456.858L541.14 479.29M631.674 479.29L608.72 456.858L586.204 479.29M676.738 479.29L653.784 456.858L631.269 479.29M721.803 479.29L698.849 456.858L676.333 479.29M766.868 479.29L743.913 456.858L721.398 479.29M811.932 479.29L788.978 456.858L766.462 479.29M856.997 479.29L834.042 456.858L811.527 479.29M902.061 479.29L881.537 459.257L879.107 456.892L856.592 479.324M46.1047 428.074L23.1504 405.642L0.635025 428.074M91.1017 428.074L68.1475 405.642L45.6321 428.074M136.099 428.074L113.145 405.642L90.6291 428.074M181.163 428.074L158.209 405.642L135.694 428.074M226.228 428.074L203.274 405.642L180.758 428.074M271.292 428.074L248.338 405.642L225.823 428.074M316.357 428.074L293.403 405.642L270.887 428.074M361.422 428.074L338.467 405.642L315.952 428.074M406.486 428.074L383.532 405.642L361.016 428.074M451.551 428.074L428.596 405.642L406.081 428.074M496.615 428.074L473.661 405.642L451.146 428.074M541.68 428.074L518.725 405.642L496.21 428.074M586.744 428.074L563.79 405.642L541.275 428.074M631.809 428.074L608.855 405.642L586.339 428.074M676.873 428.074L653.919 405.642L631.404 428.074M721.938 428.074L698.984 405.642L676.468 428.074M767.003 428.074L744.048 405.642L721.533 428.074M812.067 428.074L789.113 405.642L766.597 428.074M857.132 428.074L834.177 405.642L811.662 428.074M902.196 428.074L879.242 405.642L856.727 428.074M46.2734 435.034L23.3192 412.601L0.635025 435.034M91.1017 435.034L68.1475 412.601L45.6321 435.034M136.099 435.034L113.145 412.601L90.6291 435.034M181.163 435.034L158.209 412.601L135.694 435.034M226.228 435.034L203.274 412.601L180.758 435.034M271.292 435.034L248.338 412.601L225.823 435.034M316.357 435.034L293.403 412.601L270.887 435.034M361.422 435.034L338.467 412.601L315.952 435.034M406.486 435.034L383.532 412.601L361.016 435.034M451.551 435.034L428.596 412.601L406.081 435.034M496.615 435.034L473.661 412.601L451.146 435.034M541.68 435.034L518.725 412.601L496.21 435.034M586.744 435.034L563.79 412.601L541.275 435.034M631.809 435.034L608.855 412.601L586.339 435.034M676.873 435.034L653.919 412.601L631.404 435.034M721.938 435.034L698.984 412.601L676.468 435.034M767.003 435.034L744.048 412.601L721.533 435.034M812.067 435.034L789.113 412.601L766.597 435.034M857.132 435.034L834.177 412.601L811.662 435.034M902.196 435.034L879.242 412.601L856.727 435.034M46.1047 383.007L23.1504 360.574L0.635025 383.007M91.1017 383.007L68.1475 360.574L45.6321 383.007M136.099 383.007L113.145 360.574L90.6291 383.007M181.163 383.007L158.209 360.574L135.694 383.007M226.228 383.007L203.274 360.574L180.758 383.007M271.292 383.007L248.338 360.574L225.823 383.007M316.357 383.007L293.403 360.574L270.887 383.007M361.422 383.007L338.467 360.574L315.952 383.007M406.486 383.007L383.532 360.574L361.016 383.007M451.551 383.007L428.596 360.574L406.081 383.007M496.615 383.007L473.661 360.574L451.146 383.007M541.68 383.007L518.725 360.574L496.21 383.007M586.744 383.007L563.79 360.574L541.275 383.007M631.809 383.007L608.855 360.574L586.339 383.007M676.873 383.007L653.919 360.574L631.404 383.007M721.938 383.007L698.984 360.574L676.468 383.007M767.003 383.007L744.048 360.574L721.533 383.007M812.067 383.007L789.113 360.574L766.597 383.007M857.132 383.007L834.177 360.574L811.662 383.007M902.196 383.007L879.242 360.574L856.727 383.007M46.2734 389.966L23.3192 367.534L0.635025 389.966M91.1017 389.966L68.1475 367.534L45.6321 389.966M136.099 389.966L113.145 367.534L90.6291 389.966M181.163 389.966L158.209 367.534L135.694 389.966M226.228 389.966L203.274 367.534L180.758 389.966M271.292 389.966L248.338 367.534L225.823 389.966M316.357 389.966L293.403 367.534L270.887 389.966M361.422 389.966L338.467 367.534L315.952 389.966M406.486 389.966L383.532 367.534L361.016 389.966M451.551 389.966L428.596 367.534L406.081 389.966M496.615 389.966L473.661 367.534L451.146 389.966M541.68 389.966L518.725 367.534L496.21 389.966M586.744 389.966L563.79 367.534L541.275 389.966M631.809 389.966L608.855 367.534L586.339 389.966M676.873 389.966L653.919 367.534L631.404 389.966M721.938 389.966L698.984 367.534L676.468 389.966M767.003 389.966L744.048 367.534L721.533 389.966M812.067 389.966L789.113 367.534L766.597 389.966M857.132 389.966L834.177 367.534L811.662 389.966M902.196 389.966L879.242 367.534L856.727 389.966M46.1047 337.939L23.1504 315.507L0.635025 337.939M91.1017 337.939L68.1475 315.507L45.6321 337.939M136.099 337.939L113.145 315.507L90.6291 337.939M181.163 337.939L158.209 315.507L135.694 337.939M226.228 337.939L203.274 315.507L180.758 337.939M271.292 337.939L248.338 315.507L225.823 337.939M316.357 337.939L293.403 315.507L270.887 337.939M361.422 337.939L338.467 315.507L315.952 337.939M406.486 337.939L383.532 315.507L361.016 337.939M451.551 337.939L428.596 315.507L406.081 337.939M496.615 337.939L473.661 315.507L451.146 337.939M541.68 337.939L518.725 315.507L496.21 337.939M586.744 337.939L563.79 315.507L541.275 337.939M631.809 337.939L608.855 315.507L586.339 337.939M676.873 337.939L653.919 315.507L631.404 337.939M721.938 337.939L698.984 315.507L676.468 337.939M767.003 337.939L744.048 315.507L721.533 337.939M812.067 337.939L789.113 315.507L766.597 337.939M857.132 337.939L834.177 315.507L811.662 337.939M902.196 337.939L879.242 315.507L856.727 337.939M46.2734 344.899L23.3192 322.466L0.635025 344.899M91.1017 344.899L68.1475 322.466L45.6321 344.899M136.099 344.899L113.145 322.466L90.6291 344.899M181.163 344.899L158.209 322.466L135.694 344.899M226.228 344.899L203.274 322.466L180.758 344.899M271.292 344.899L248.338 322.466L225.823 344.899M316.357 344.899L293.403 322.466L270.887 344.899M361.422 344.899L338.467 322.466L315.952 344.899M406.486 344.899L383.532 322.466L361.016 344.899M451.551 344.899L428.596 322.466L406.081 344.899M496.615 344.899L473.661 322.466L451.146 344.899M541.68 344.899L518.725 322.466L496.21 344.899M586.744 344.899L563.79 322.466L541.275 344.899M631.809 344.899L608.855 322.466L586.339 344.899M676.873 344.899L653.919 322.466L631.404 344.899M721.938 344.899L698.984 322.466L676.468 344.899M767.003 344.899L744.048 322.466L721.533 344.899M812.067 344.899L789.113 322.466L766.597 344.899M857.132 344.899L834.177 322.466L811.662 344.899M902.196 344.899L879.242 322.466L856.727 344.899M46.1047 292.872L23.1504 270.439L0.635025 292.872M91.1017 292.872L68.1475 270.439L45.6321 292.872M136.099 292.872L113.145 270.439L90.6291 292.872M181.163 292.872L158.209 270.439L135.694 292.872M226.228 292.872L203.274 270.439L180.758 292.872M271.292 292.872L248.338 270.439L225.823 292.872M316.357 292.872L293.403 270.439L270.887 292.872M361.422 292.872L338.467 270.439L315.952 292.872M406.486 292.872L383.532 270.439L361.016 292.872M451.551 292.872L428.596 270.439L406.081 292.872M496.615 292.872L473.661 270.439L451.146 292.872M541.68 292.872L518.725 270.439L496.21 292.872M586.744 292.872L563.79 270.439L541.275 292.872M631.809 292.872L608.855 270.439L586.339 292.872M676.873 292.872L653.919 270.439L631.404 292.872M721.938 292.872L698.984 270.439L676.468 292.872M767.003 292.872L744.048 270.439L721.533 292.872M812.067 292.872L789.113 270.439L766.597 292.872M857.132 292.872L834.177 270.439L811.662 292.872M902.196 292.872L879.242 270.439L856.727 292.872M46.2734 299.831L23.3192 277.399L0.635025 299.831M91.1017 299.831L68.1475 277.399L45.6321 299.831M136.099 299.831L113.145 277.399L90.6291 299.831M181.163 299.831L158.209 277.399L135.694 299.831M226.228 299.831L203.274 277.399L180.758 299.831M271.292 299.831L248.338 277.399L225.823 299.831M316.357 299.831L293.403 277.399L270.887 299.831M361.422 299.831L338.467 277.399L315.952 299.831M406.486 299.831L383.532 277.399L361.016 299.831M451.551 299.831L428.596 277.399L406.081 299.831M496.615 299.831L473.661 277.399L451.146 299.831M541.68 299.831L518.725 277.399L496.21 299.831M586.744 299.831L563.79 277.399L541.275 299.831M631.809 299.831L608.855 277.399L586.339 299.831M676.873 299.831L653.919 277.399L631.404 299.831M721.938 299.831L698.984 277.399L676.468 299.831M767.003 299.831L744.048 277.399L721.533 299.831M812.067 299.831L789.113 277.399L766.597 299.831M857.132 299.831L834.177 277.399L811.662 299.831M902.196 299.831L879.242 277.399L856.727 299.831M46.1047 247.804L23.1504 225.372L0.635025 247.804M91.1017 247.804L68.1475 225.372L45.6321 247.804M136.099 247.804L113.145 225.372L90.6291 247.804M181.163 247.804L158.209 225.372L135.694 247.804M226.228 247.804L203.274 225.372L180.758 247.804M271.292 247.804L248.338 225.372L225.823 247.804M316.357 247.804L293.403 225.372L270.887 247.804M361.422 247.804L338.467 225.372L315.952 247.804M406.486 247.804L383.532 225.372L361.016 247.804M451.551 247.804L428.596 225.372L406.081 247.804M496.615 247.804L473.661 225.372L451.146 247.804M541.68 247.804L518.725 225.372L496.21 247.804M586.744 247.804L563.79 225.372L541.275 247.804M631.809 247.804L608.855 225.372L586.339 247.804M676.873 247.804L653.919 225.372L631.404 247.804M721.938 247.804L698.984 225.372L676.468 247.804M767.003 247.804L744.048 225.372L721.533 247.804M812.067 247.804L789.113 225.372L766.597 247.804M857.132 247.804L834.177 225.372L811.662 247.804M902.196 247.804L879.242 225.372L856.727 247.804M46.2734 254.764L23.3192 232.331L0.635025 254.764M91.1017 254.764L68.1475 232.331L45.6321 254.764M136.099 254.764L113.145 232.331L90.6291 254.764M181.163 254.764L158.209 232.331L135.694 254.764M226.228 254.764L203.274 232.331L180.758 254.764M271.292 254.764L248.338 232.331L225.823 254.764M316.357 254.764L293.403 232.331L270.887 254.764M361.422 254.764L338.467 232.331L315.952 254.764M406.486 254.764L383.532 232.331L361.016 254.764M451.551 254.764L428.596 232.331L406.081 254.764M496.615 254.764L473.661 232.331L451.146 254.764M541.68 254.764L518.725 232.331L496.21 254.764M586.744 254.764L563.79 232.331L541.275 254.764M631.809 254.764L608.855 232.331L586.339 254.764M676.873 254.764L653.919 232.331L631.404 254.764M721.938 254.764L698.984 232.331L676.468 254.764M767.003 254.764L744.048 232.331L721.533 254.764M812.067 254.764L789.113 232.331L766.597 254.764M857.132 254.764L834.177 232.331L811.662 254.764M902.196 254.764L879.242 232.331L856.727 254.764M46.1047 202.703L23.1504 180.27L0.635025 202.703M91.1017 202.703L68.1475 180.27L45.6321 202.703M136.099 202.703L113.145 180.27L90.6291 202.703M181.163 202.703L158.209 180.27L135.694 202.703M226.228 202.703L203.274 180.27L180.758 202.703M271.292 202.703L248.338 180.27L225.823 202.703M316.357 202.703L293.403 180.27L270.887 202.703M361.422 202.703L338.467 180.27L315.952 202.703M406.486 202.703L383.532 180.27L361.016 202.703M451.551 202.703L428.596 180.27L406.081 202.703M496.615 202.703L473.661 180.27L451.146 202.703M541.68 202.703L518.725 180.27L496.21 202.703M586.744 202.703L563.79 180.27L541.275 202.703M631.809 202.703L608.855 180.27L586.339 202.703M676.873 202.703L653.919 180.27L631.404 202.703M721.938 202.703L698.984 180.27L676.468 202.703M767.003 202.703L744.048 180.27L721.533 202.703M812.067 202.703L789.113 180.27L766.597 202.703M857.132 202.703L834.177 180.27L811.662 202.703M902.196 202.703L879.242 180.27L856.727 202.703M46.1047 209.696L23.1504 187.264L0.635025 209.696M91.1017 209.696L68.1475 187.264L45.6321 209.696M136.099 209.696L113.145 187.264L90.6291 209.696M181.163 209.696L158.209 187.264L135.694 209.696M226.228 209.696L203.274 187.264L180.758 209.696M271.292 209.696L248.338 187.264L225.823 209.696M316.357 209.696L293.403 187.264L270.887 209.696M361.422 209.696L338.467 187.264L315.952 209.696M406.486 209.696L383.532 187.264L361.016 209.696M451.551 209.696L428.596 187.264L406.081 209.696M496.615 209.696L473.661 187.264L451.146 209.696M541.68 209.696L518.725 187.264L496.21 209.696M586.744 209.696L563.79 187.264L541.275 209.696M631.809 209.696L608.855 187.264L586.339 209.696M676.873 209.696L653.919 187.264L631.404 209.696M721.938 209.696L698.984 187.264L676.468 209.696M767.003 209.696L744.048 187.264L721.533 209.696M812.067 209.696L789.113 187.264L766.597 209.696M857.132 209.696L834.177 187.264L811.662 209.696M902.196 209.696L879.242 187.264L856.727 209.696M46.1047 157.635L23.1504 135.203L0.635025 157.635M91.1017 157.635L68.1475 135.203L45.6321 157.635M136.099 157.635L113.145 135.203L90.6291 157.635M181.163 157.635L158.209 135.203L135.694 157.635M226.228 157.635L203.274 135.203L180.758 157.635M271.292 157.635L248.338 135.203L225.823 157.635M316.357 157.635L293.403 135.203L270.887 157.635M361.422 157.635L338.467 135.203L315.952 157.635M406.486 157.635L383.532 135.203L361.016 157.635M451.551 157.635L428.596 135.203L406.081 157.635M496.615 157.635L473.661 135.203L451.146 157.635M541.68 157.635L518.725 135.203L496.21 157.635M586.744 157.635L563.79 135.203L541.275 157.635M631.809 157.635L608.855 135.203L586.339 157.635M676.873 157.635L653.919 135.203L631.404 157.635M721.938 157.635L698.984 135.203L676.468 157.635M767.003 157.635L744.048 135.203L721.533 157.635M812.067 157.635L789.113 135.203L766.597 157.635M857.132 157.635L834.177 135.203L811.662 157.635M902.196 157.635L879.242 135.203L856.727 157.635M46.1047 164.628L23.1504 142.196L0.635025 164.628M91.1017 164.628L68.1475 142.196L45.6321 164.628M136.099 164.628L113.145 142.196L90.6291 164.628M181.163 164.628L158.209 142.196L135.694 164.628M226.228 164.628L203.274 142.196L180.758 164.628M271.292 164.628L248.338 142.196L225.823 164.628M316.357 164.628L293.403 142.196L270.887 164.628M361.422 164.628L338.467 142.196L315.952 164.628M406.486 164.628L383.532 142.196L361.016 164.628M451.551 164.628L428.596 142.196L406.081 164.628M496.615 164.628L473.661 142.196L451.146 164.628M541.68 164.628L518.725 142.196L496.21 164.628M586.744 164.628L563.79 142.196L541.275 164.628M631.809 164.628L608.855 142.196L586.339 164.628M676.873 164.628L653.919 142.196L631.404 164.628M721.938 164.628L698.984 142.196L676.468 164.628M767.003 164.628L744.048 142.196L721.533 164.628M812.067 164.628L789.113 142.196L766.597 164.628M857.132 164.628L834.177 142.196L811.662 164.628M902.196 164.628L879.242 142.196L856.727 164.628M46.1047 112.568L23.1504 90.1351L0.635025 112.568M91.1017 112.568L68.1475 90.1351L45.6321 112.568M136.099 112.568L113.145 90.1351L90.6291 112.568M181.163 112.568L158.209 90.1351L135.694 112.568M226.228 112.568L203.274 90.1351L180.758 112.568M271.292 112.568L248.338 90.1351L225.823 112.568M316.357 112.568L293.403 90.1351L270.887 112.568M361.422 112.568L338.467 90.1351L315.952 112.568M406.486 112.568L383.532 90.1351L361.016 112.568M451.551 112.568L428.596 90.1351L406.081 112.568M496.615 112.568L473.661 90.1351L451.146 112.568M541.68 112.568L518.725 90.1351L496.21 112.568M586.744 112.568L563.79 90.1351L541.275 112.568M631.809 112.568L608.855 90.1351L586.339 112.568M676.873 112.568L653.919 90.1351L631.404 112.568M721.938 112.568L698.984 90.1351L676.468 112.568M767.003 112.568L744.048 90.1351L721.533 112.568M812.067 112.568L789.113 90.1351L766.597 112.568M857.132 112.568L834.177 90.1351L811.662 112.568M902.196 112.568L879.242 90.1351L856.727 112.568M46.1047 119.527L23.1504 97.0946L0.635025 119.527M91.1017 119.527L68.1475 97.0946L45.6321 119.527M136.099 119.527L113.145 97.0946L90.6291 119.527M181.163 119.527L158.209 97.0946L135.694 119.527M226.228 119.527L203.274 97.0946L180.758 119.527M271.292 119.527L248.338 97.0946L225.823 119.527M316.357 119.527L293.403 97.0946L270.887 119.527M361.422 119.527L338.467 97.0946L315.952 119.527M406.486 119.527L383.532 97.0946L361.016 119.527M451.551 119.527L428.596 97.0946L406.081 119.527M496.615 119.527L473.661 97.0946L451.146 119.527M541.68 119.527L518.725 97.0946L496.21 119.527M586.744 119.527L563.79 97.0946L541.275 119.527M631.809 119.527L608.855 97.0946L586.339 119.527M676.873 119.527L653.919 97.0946L631.404 119.527M721.938 119.527L698.984 97.0946L676.468 119.527M767.003 119.527L744.048 97.0946L721.533 119.527M812.067 119.527L789.113 97.0946L766.597 119.527M857.132 119.527L834.177 97.0946L811.662 119.527M902.196 119.527L879.242 97.0946L856.727 119.527M46.1047 67.5L23.1504 45.0676L0.635025 67.5M91.1017 67.5L68.1475 45.0676L45.6321 67.5M136.099 67.5L113.145 45.0676L90.6291 67.5M181.163 67.5L158.209 45.0676L135.694 67.5M226.228 67.5L203.274 45.0676L180.758 67.5M271.292 67.5L248.338 45.0676L225.823 67.5M316.357 67.5L293.403 45.0676L270.887 67.5M361.422 67.5L338.467 45.0676L315.952 67.5M406.486 67.5L383.532 45.0676L361.016 67.5M451.551 67.5L428.596 45.0676L406.081 67.5M496.615 67.5L473.661 45.0676L451.146 67.5M541.68 67.5L518.725 45.0676L496.21 67.5M586.744 67.5L563.79 45.0676L541.275 67.5M631.809 67.5L608.855 45.0676L586.339 67.5M676.873 67.5L653.919 45.0676L631.404 67.5M721.938 67.5L698.984 45.0676L676.468 67.5M767.003 67.5L744.048 45.0676L721.533 67.5M812.067 67.5L789.113 45.0676L766.597 67.5M857.132 67.5L834.177 45.0676L811.662 67.5M902.196 67.5L879.242 45.0676L856.727 67.5M46.1047 74.4595L23.1504 52.027L0.635025 74.4595M91.1017 74.4595L68.1475 52.027L45.6321 74.4595M136.099 74.4595L113.145 52.027L90.6291 74.4595M181.163 74.4595L158.209 52.027L135.694 74.4595M226.228 74.4595L203.274 52.027L180.758 74.4595M271.292 74.4595L248.338 52.027L225.823 74.4595M316.357 74.4595L293.403 52.027L270.887 74.4595M361.422 74.4595L338.467 52.027L315.952 74.4595M406.486 74.4595L383.532 52.027L361.016 74.4595M451.551 74.4595L428.596 52.027L406.081 74.4595M496.615 74.4595L473.661 52.027L451.146 74.4595M541.68 74.4595L518.725 52.027L496.21 74.4595M586.744 74.4595L563.79 52.027L541.275 74.4595M631.809 74.4595L608.855 52.027L586.339 74.4595M676.873 74.4595L653.919 52.027L631.404 74.4595M721.938 74.4595L698.984 52.027L676.468 74.4595M767.003 74.4595L744.048 52.027L721.533 74.4595M812.067 74.4595L789.113 52.027L766.597 74.4595M857.132 74.4595L834.177 52.027L811.662 74.4595M902.196 74.4595L879.242 52.027L856.727 74.4595M46.1047 22.4324L23.1504 0L0.635025 22.4324M91.1017 22.4324L68.1475 0L45.6321 22.4324M136.099 22.4324L113.145 0L90.6291 22.4324M181.163 22.4324L158.175 0L135.66 22.4324M226.194 22.4324L203.24 0L180.724 22.4324M271.259 22.4324L248.304 0L225.789 22.4324M316.323 22.4324L293.369 0L270.854 22.4324M361.388 22.4324L338.4 0L315.884 22.4324M406.419 22.4324L383.464 0L360.949 22.4324M451.483 22.4324L428.529 0L406.013 22.4324M496.548 22.4324L473.56 0L451.044 22.4324M541.578 22.4324L518.624 0L496.109 22.4324M586.643 22.4324L563.689 0L541.173 22.4324M631.708 22.4324L608.753 0L586.238 22.4324M676.772 22.4324L653.784 0L631.269 22.4324M721.803 22.4324L698.849 0L676.333 22.4324M766.868 22.4324L743.913 0L721.398 22.4324M811.932 22.4324L788.944 0L766.429 22.4324M856.963 22.4324L834.009 0L811.493 22.4324M902.027 22.4324L879.073 0L856.558 22.4324M46.1047 29.3919L23.1504 6.95946L0.635025 29.3919M91.1017 29.3919L68.1475 6.95946L45.6321 29.3919M136.099 29.3919L113.145 6.95946L90.6291 29.3919M181.163 29.3919L158.209 6.95946L135.694 29.3919M226.228 29.3919L203.274 6.95946L180.758 29.3919M271.292 29.3919L248.338 6.95946L225.823 29.3919M316.357 29.3919L293.403 6.95946L270.887 29.3919M361.422 29.3919L338.467 6.95946L315.952 29.3919M406.486 29.3919L383.532 6.95946L361.016 29.3919M451.551 29.3919L428.596 6.95946L406.081 29.3919M496.615 29.3919L473.661 6.95946L451.146 29.3919M541.68 29.3919L518.725 6.95946L496.21 29.3919M586.744 29.3919L563.79 6.95946L541.275 29.3919M631.809 29.3919L608.855 6.95946L586.339 29.3919M676.873 29.3919L653.919 6.95946L631.404 29.3919M721.938 29.3919L698.984 6.95946L676.468 29.3919M767.003 29.3919L744.048 6.95946L721.533 29.3919M812.067 29.3919L789.113 6.95946L766.597 29.3919M857.132 29.3919L834.177 6.95946L811.662 29.3919M902.196 29.3919L879.242 6.95946L856.727 29.3919" stroke="black" stroke-width="0.2" stroke-miterlimit="10"/>
</svg>
